<?xml version="1.0" encoding="utf-8"?>
<!-- Generator: Adobe Illustrator 16.0.0, SVG Export Plug-In . SVG Version: 6.00 Build 0)  -->
<!DOCTYPE svg PUBLIC "-//W3C//DTD SVG 1.1//EN" "http://www.w3.org/Graphics/SVG/1.1/DTD/svg11.dtd">
<svg version="1.1" id="Layer_1" xmlns="http://www.w3.org/2000/svg" xmlns:xlink="http://www.w3.org/1999/xlink" x="0px" y="0px"
	 width="550px" height="142.647px" viewBox="0 0 550 142.647" enable-background="new 0 0 550 142.647" xml:space="preserve">
	 <style type="text/css" >
      <![CDATA[

        .stroke{
	position: absolute;
	top: 50%;
	left: 50%;
	transform: translate(-50%,-50%);
	width: 80%;
}
path{
	fill: #fff;
	stroke: #fff;
	stroke-dasharray: 800;
	opacity: 1;
	animation: ani 4s;
}

@keyframes ani{
	0%{
	fill: none;
	stroke: #fff;
	stroke-dashoffset: 800;
	opacity: 0;
	}
	20%{
	fill: none;
	stroke: #fff;
	stroke-dashoffset: 800;
	opacity: 0;
	}
	90%{
	fill: rgba(255.255,255,0);
	}
	100%{
	fill: rgba(250,112,112,1);
	opacity: 1;
	}
}

      ]]>
    </style>
<g>
	<path fill="none" stroke="#FFFFFF" stroke-miterlimit="10" d="M121.82,76.93h6.712c3.258,0.342,4.888,1.344,4.888,3.003
		c0,1.075-1.192,1.611-3.578,1.611l-4.745-0.293l-6.863,0.07l-14.927,18.934c-10.097,12.575-15.682,18.862-16.755,18.862
		c-0.949,0-1.822-0.698-2.621-2.097c-0.749-1.205-1.123-2.314-1.123-3.327c0-1.513,8.313-12.305,24.94-32.373h-5.718
		c-7.966,0.047-19.818,0.49-35.555,1.329l-24.756,21.133l-9.595,8.584c-5.176,4.501-8.326,6.751-9.448,6.751
		c-1.368,0-2.051-0.708-2.051-2.125c0-1.761,7.055-8.514,21.167-20.257L58.566,82.79c-22.412,1.075-33.984,2.197-34.717,3.369v0.073
		c0,0.928,3.49,1.392,10.474,1.392l9.814-0.146c1.318-0.048,1.978,0.245,1.978,0.879c0,1.368-5.323,2.051-15.967,2.051
		c-9.082,0-13.623-1.146-13.623-3.442c0-2.93,2.685-4.931,8.057-6.006c1.513-0.341,5.273-0.707,11.279-1.099l28.564-1.904
		c11.523-9.532,28.002-21.899,49.438-37.102c27.294-19.309,43.579-28.963,48.853-28.963c2.637,0,3.955,1.711,3.955,5.13
		c0,2.884-3.439,8.6-10.317,17.15L121.82,76.93z M111.343,76.93l34.318-41.728l6.366-7.774c2.732-3.47,4.537-6.134,5.416-7.993
		l0.112-0.293c0-0.538-0.245-0.807-0.734-0.807c-2.298,0-16.819,9.778-43.563,29.333L72.995,77.589L111.343,76.93z"/>
	<path fill="none" stroke="#FFFFFF" stroke-miterlimit="10" d="M163.449,81.764c2.538-1.855,5.054-2.783,7.544-2.783
		c2.148,0,3.942,0.782,5.383,2.344c1.439,1.563,2.161,3.442,2.161,5.64c0,6.251-3.492,13.086-10.474,20.508
		c-7.081,7.569-13.722,11.353-19.922,11.353c-5.909,0-8.862-3.051-8.862-9.155c0-3.223,1.392-7.714,4.175-13.477
		c-7.569,6.788-12.891,11.329-15.967,13.623c-8.154,6.202-14.502,9.302-19.043,9.302c-0.586,0-0.879-0.301-0.879-0.904
		c0-0.904,0.635-1.48,1.904-1.732c4.98-1.024,11.719-4.903,20.215-11.635c9.423-7.464,18.408-16.49,26.953-27.077
		c12.792-15.854,23.754-27.612,32.886-35.273c9.521-7.951,15.844-11.928,18.97-11.928c3.076,0,4.614,1.513,4.614,4.538
		c0,3.318-3.102,8.489-9.302,15.514c-5.273,5.952-15.04,13.489-29.297,22.612c-2.003,1.172-4.907,3-8.716,5.489
		C165.158,79.167,164.376,80.18,163.449,81.764z M164.182,101.613c-4.541-1.904-6.812-4.882-6.812-8.936
		c0-1.513,0.513-3.393,1.538-5.64c-9.961,12.647-14.941,21.119-14.941,25.415c0,2.003,0.952,3.003,2.856,3.003
		C151.364,115.456,157.15,110.841,164.182,101.613z M165.866,99.342c4.638-5.566,6.958-10.107,6.958-13.623
		c0-2.49-1.032-3.735-3.095-3.735c-2.406,0-4.616,1.161-6.629,3.479c-2.014,2.32-3.02,4.7-3.02,7.141
		C160.08,95.925,162.008,98.17,165.866,99.342z M210.178,35.695c0-0.586-0.245-0.879-0.732-0.879
		c-2.247,0-8.912,5.713-19.995,17.139c-8.985,9.229-15.43,16.285-19.336,21.167c19.336-11.865,31.738-22.29,37.207-31.274
		C209.226,38.771,210.178,36.72,210.178,35.695z"/>
	<path fill="none" stroke="#FFFFFF" stroke-miterlimit="10" d="M198.02,99.562l-15.088,11.499
		c-7.714,5.372-13.477,8.057-17.285,8.057c-0.586,0-0.879-0.301-0.879-0.904c0-0.954,0.489-1.531,1.465-1.732
		c2.979-0.536,5.519-1.388,7.617-2.558c3.662-1.998,9.619-6.262,17.871-12.792l19.336-15.861c3.71-3.264,5.98-4.897,6.812-4.897
		c1.231,0,2.586,0.685,4.065,2.051c2.823-2.148,5.331-3.223,7.522-3.223c3.31,0,4.966,1.783,4.966,5.347
		c0,5.323-4.248,12.574-12.744,21.753c-8.643,9.278-15.626,13.916-20.947,13.916c-4.98,0-7.471-2.611-7.471-7.837
		C193.259,109.646,194.845,105.374,198.02,99.562z M215.671,90.553c-9.961,8.718-14.941,15.819-14.941,21.303
		c0,2.351,1.123,3.526,3.369,3.526c3.662,0,9.375-4.438,17.139-13.315c-4.102-0.977-6.152-3.617-6.152-7.92
		C215.085,93.023,215.279,91.825,215.671,90.553z M222.849,99.713c1.806-1.716,3.613-4.045,5.42-6.989
		c2.001-3.383,3.003-6.08,3.003-8.091c0-1.863-0.806-2.796-2.417-2.796c-2.393,0-4.797,1.508-7.214,4.524
		c-2.417,3.017-3.625,5.75-3.625,8.202C218.015,97.31,219.626,99.026,222.849,99.713z"/>
	<path fill="none" stroke="#FFFFFF" stroke-miterlimit="10" d="M272.8,105.348c-8.496,8.302-14.747,12.451-18.75,12.451
		c-3.028,0-4.541-1.685-4.541-5.054c0-3.955,1.758-8.397,5.273-13.33l9.448-11.133l-20.947,17.358
		c-11.816,8.985-20.116,13.477-24.902,13.477c-0.586,0-0.879-0.317-0.879-0.952c0-0.83,0.708-1.392,2.124-1.685
		c1.807-0.341,3.931-1.073,6.372-2.197c2.833-1.318,8.814-5.566,17.944-12.744c4.199-3.271,10.375-8.397,18.53-15.381
		c1.366-1.416,3.563-3.344,6.592-5.786c1.22-0.78,2.344-1.172,3.369-1.172c2.831,0,4.248,0.928,4.248,2.783
		c0,1.904-3.418,6.641-10.254,14.209c-6.837,7.569-10.254,12.964-10.254,16.187c0,0.831,0.439,1.245,1.318,1.245
		c2.93,0,9.448-5.59,19.556-16.772c10.107-11.181,15.844-16.772,17.212-16.772c0.683,0,1.355,0.355,2.014,1.062
		c0.659,0.708,0.989,1.428,0.989,2.161c0,1.172-3.772,6.116-11.316,14.832s-11.316,14.295-11.316,16.736
		c0,1.124,0.83,1.71,2.49,1.758c1.659,0.049,2.49,0.465,2.49,1.245c0,0.928-1.23,1.392-3.689,1.392
		c-4.133,0-6.198-1.562-6.198-4.688C269.724,112.332,270.749,109.255,272.8,105.348z"/>
	<path fill="none" stroke="#FFFFFF" stroke-miterlimit="10" d="M337.033,71.291l-26.367,1.025c-1.465,0-2.197-0.39-2.197-1.172
		c0-0.634,1.196-1.123,3.589-1.465c3.369-0.537,8.104-1,14.209-1.392c6.786-0.39,11.547-0.756,14.282-1.099l10.474-12.524
		c5.614-6.64,9.009-9.961,10.181-9.961c1.465,0,2.197,0.928,2.197,2.783c0,2.003-4.444,8.569-13.33,19.702
		c5.127-0.341,9.375-0.513,12.744-0.513c2.245,0,3.369,0.439,3.369,1.318c0,0.978-2.71,1.637-8.13,1.978l-11.133,0.366
		l-16.333,20.402c-10.303,13.407-15.454,21.402-15.454,23.986c0,1.219,0.83,1.84,2.49,1.864c1.659,0.025,2.49,0.438,2.49,1.242
		c0,0.955-1.075,1.432-3.223,1.432c-4.347,0-6.519-1.758-6.519-5.273c0-2.783,1.416-6.762,4.248-11.938l6.372-10.693l-21.68,17.065
		c-9.033,7.13-15.991,10.693-20.874,10.693c-0.586,0-0.879-0.326-0.879-0.979c0-0.854,0.489-1.405,1.465-1.657
		c1.661-0.341,4.175-1.194,7.544-2.559c3.272-1.706,10.547-6.972,21.826-15.795c8.35-6.483,13.598-10.7,15.747-12.65
		C327.999,81.967,332.296,77.238,337.033,71.291z"/>
	<path fill="none" stroke="#FFFFFF" stroke-miterlimit="10" d="M471.652,71.984l-31.934,26.715
		c-18.896,14.638-31.934,21.957-39.111,21.957c-2.589,0-4.797-0.927-6.628-2.781s-2.747-4.074-2.747-6.661
		c0-4.976,2.001-10.709,6.006-17.199c4.785-7.709,12.622-17.297,23.511-28.764c9.961-10.441,19.067-19.004,27.319-25.689
		c3.417-2.488,8.227-6.415,14.429-11.78c0.83-0.829,1.245-1.438,1.245-1.83c0-0.438-0.293-0.658-0.879-0.658
		c-3.076,0-8.814,2.417-17.212,7.251c-6.983,4.004-12.55,7.643-16.699,10.913c-1.465,1.172-2.589,1.758-3.369,1.758
		c-1.661,0-2.49-0.683-2.49-2.051c0-1.22,3.197-4.052,9.595-8.496c14.16-9.814,24.756-14.722,31.787-14.722
		c3.369,0,5.054,1.708,5.054,5.124c0,3.367-2.833,7.586-8.5,12.661c-12.56,11.222-24.826,23.226-36.799,36.009
		c-18.531,19.844-27.796,33.088-27.796,39.735c0,1.564,0.512,2.346,1.537,2.346c3.122,0,11.05-3.833,23.785-11.499
		c8.831-5.371,18.711-12.426,29.64-21.167l28.104-23.364c3.659-3.027,8.391-7.544,14.197-13.55l13.686-14.282
		c8.637-8.74,13.516-13.11,14.637-13.11c1.195,0,2.34,0.489,3.436,1.464c1.096,0.976,1.643,2.025,1.643,3.147
		c0,0.683-0.439,1.464-1.318,2.343c-20.605,20.786-36.67,38.156-48.193,52.11c-16.651,20.052-24.976,32.079-24.976,36.08
		c0,2.049,1.245,3.074,3.735,3.074c0.39,0,0.916-0.097,1.575-0.293c0.659-0.194,1.159-0.293,1.501-0.293
		c0.487,0,0.732,0.22,0.732,0.659c0,0.879-1.001,1.611-3.003,2.197c-1.514,0.439-2.882,0.659-4.102,0.659
		c-3.761,0-5.64-2.074-5.64-6.221C447.409,105.579,455.49,91.648,471.652,71.984z"/>
	<path fill="none" stroke="#FFFFFF" stroke-miterlimit="10" d="M490.036,106.593c-10.155,8.35-17.871,12.524-23.144,12.524
		c-0.586,0-0.879-0.301-0.879-0.904c0-0.904,0.489-1.48,1.465-1.732c1.807-0.438,4.59-1.414,8.35-2.924
		c3.516-1.901,12.451-8.822,26.806-20.764c13.623-11.307,20.605-16.961,20.947-16.961c1.123,0,2.234,0.487,3.332,1.462
		c1.1,0.975,1.648,2.022,1.648,3.144c0,3.558-2.783,9.821-8.35,18.789c-4.834,7.75-9.057,13.551-12.67,17.401
		c2.148,0,3.223,0.402,3.223,1.204c0,1.004-1.037,1.506-3.105,1.506c-0.543,0-1.344-0.099-2.402-0.293
		c-1.061-0.194-1.861-0.293-2.402-0.293c-0.393,0-0.979,0.073-1.758,0.22c-0.781,0.146-1.367,0.22-1.758,0.22
		C493.137,119.191,490.036,114.992,490.036,106.593z M499.557,115.308l-2.051-5.828c-1.074-2.852-2.123-4.279-3.148-4.279
		c-1.074,0-1.611,0.836-1.611,2.507c0,1.672,0.486,3.393,1.465,5.163c1.123,2.017,2.441,3.023,3.955,3.023
		C498.752,115.895,499.215,115.699,499.557,115.308z M501.682,113.033c3.416-2.838,7.178-7.73,11.279-14.679
		c3.809-6.459,6.469-12.159,7.982-17.102l-26.221,21.313c1.807,0.295,3.32,1.72,4.541,4.275L501.682,113.033z"/>
</g>
</svg>

