
<svg version="1.1" id="Layer_1" xmlns="http://www.w3.org/2000/svg" xmlns:xlink="http://www.w3.org/1999/xlink" x="0px" y="0px"
	 width="1379.824px" height="129.412px" viewBox="0 0 1379.824 129.412" enable-background="new 0 0 1379.824 129.412"
	 xml:space="preserve">
	 <style type="text/css" >
      <![CDATA[

       
path{
	fill: #fff;
	stroke: #fff;
	stroke-dasharray: 800;
	opacity: 1;
	animation: ani 4s;
}

@keyframes ani{
	0%{
	fill: none;
	stroke: #fff;
	stroke-dashoffset: 800;
	opacity: 0;
	}
	20%{
	fill: none;
	stroke: #fff;
	stroke-dashoffset: 800;
	opacity: 0;
	}
	90%{
	fill: rgba(255.255,255,0);
	}
	100%{
	fill: rgba(250,112,112,1);
	opacity: 1;
	}
}

      ]]>
    </style>
<g>
	<path fill="none" stroke="#FFFFFF" stroke-miterlimit="10" d="M109.591,66.648c31.582-31.969,51.793-47.954,60.635-47.954
		c3.691,0,5.537,1.754,5.537,5.259c0,3.234-1.322,6.832-3.965,10.793c-1.961,2.824-13.887,15.712-35.777,38.664
		c-18.213,20.211-27.318,32.073-27.318,35.584c0,1.232,0.889,1.916,2.666,2.053s2.666,0.404,2.666,0.803
		c0,1.242-1.391,1.863-4.17,1.863c-3.92,0-5.879-1.844-5.879-5.533c0-6.876,8.499-19.787,25.498-38.731
		c5.97-6.648,17.271-18.307,33.906-34.976c5.65-5.646,8.477-9.606,8.477-11.884c0-0.865-0.434-1.298-1.299-1.298
		c-3.145,0-12.009,6.057-26.592,18.171c-11.667,9.701-20.371,17.419-26.113,23.157c-5.512,5.51-12.752,13.297-21.723,23.361
		c-16.167,18.17-24.501,27.255-25.002,27.255c-0.69,0-1.505-0.433-2.447-1.298s-1.413-1.64-1.413-2.323
		c0-1.775,9.684-14.094,29.053-36.954c19.368-22.859,29.053-36.109,29.053-39.75c0-0.91-0.456-1.365-1.367-1.365
		c-2.324,0-8.34,3.644-18.047,10.928c-8.933,6.739-18.754,15.208-29.463,25.406L48.804,95.272l-9.712,10.45
		c-5.426,5.83-8.344,8.744-8.754,8.744c-0.727,0-1.632-0.365-2.72-1.094c-1.224-0.773-1.836-1.503-1.836-2.187
		c0-1.501,5.719-8.652,17.158-21.448l31.992-35.929c11.438-13.478,17.158-21.811,17.158-24.998c0-1.184-0.593-1.776-1.777-1.776
		c-3.281,0-10.117,4.209-20.508,12.628c-7.793,6.325-18.891,17.475-33.291,33.448c-0.912,1.002-1.641,1.502-2.188,1.502
		c-1.003,0-1.504-0.387-1.504-1.161c0-1.182,3.987-6.348,11.963-15.496c5.696-6.462,12.896-13.29,21.602-20.48
		c11.256-9.284,19.391-13.927,24.404-13.927c3.372,0,5.059,1.845,5.059,5.533c0,6.193-8.203,19.307-24.609,39.343
		c28.027-26.636,45.618-39.954,52.773-39.954c3.372,0,5.059,1.73,5.059,5.191C129.073,39.125,122.579,50.121,109.591,66.648z"/>
	<path fill="none" stroke="#FFFFFF" stroke-miterlimit="10" d="M156.554,109.069c0,1.228,1.339,1.842,4.021,1.842
		c0.6,0,0.901,0.375,0.901,1.125c0,0.891-1.515,1.336-4.544,1.336c-3.442,0-5.163-1.641-5.163-4.922
		c0-3.828,5.081-11.826,15.244-23.994L148.351,99.7c-11.028,9.023-19.026,13.535-23.994,13.535c-0.547,0-0.82-0.305-0.82-0.914
		c0-0.844,0.456-1.359,1.367-1.547c2.871-0.545,5.492-1.477,7.861-2.797c2.963-1.637,9.251-6.253,18.867-13.85l20.918-17.534
		c0.911-0.318,2.142-0.478,3.691-0.478c1.549,0,2.324,0.888,2.324,2.661c0,1.911-3.669,7.063-11.006,15.454
		C160.222,102.623,156.554,107.569,156.554,109.069z M186.769,61.761c-2.188,0-3.281-1.116-3.281-3.35
		c0-1.868,1.116-3.555,3.35-5.059c2.005-1.367,4.01-2.051,6.016-2.051c2.369,0,3.555,1.299,3.555,3.896
		c0,1.869-1.186,3.464-3.555,4.785C190.802,61.169,188.773,61.761,186.769,61.761z"/>
	<path fill="none" stroke="#FFFFFF" stroke-miterlimit="10" d="M199.005,83.021c-0.229-1.504-0.342-2.415-0.342-2.734
		c0-1.23,1.47-3.155,4.409-5.776c2.939-2.62,4.956-3.931,6.05-3.931c1.048,0,1.572,0.479,1.572,1.436c0,0.82-0.57,2.188-1.709,4.102
		c5.149,0,7.725,2.047,7.725,6.141c0,3.23-3.315,8.38-9.946,15.454c-6.631,7.073-9.946,11.041-9.946,11.906
		c0,0.817,0.426,1.272,1.28,1.363l2.222-0.068c0.628,0,0.942,0.375,0.942,1.123c0,0.938-1.322,1.406-3.965,1.406
		c-3.373,0-5.059-1.504-5.059-4.512c0-2.962,1.68-6.653,5.041-11.074c2.089-2.779,5.2-6.221,9.333-10.322
		c3.36-3.326,5.041-5.149,5.041-5.469c0-0.684-0.385-1.025-1.152-1.025c-0.678,0-1.967,0.263-3.866,0.786
		c-1.899,0.524-3.029,0.946-3.39,1.265c-21.191,20.098-35.479,30.146-42.861,30.146c-0.547,0-0.82-0.305-0.82-0.914
		c0-0.797,0.615-1.313,1.846-1.547c1.504-0.272,3.486-0.978,5.947-2.113c3.691-1.637,9.205-5.524,16.543-11.661
		C190.414,91.59,195.45,86.93,199.005,83.021z"/>
	<path fill="none" stroke="#FFFFFF" stroke-miterlimit="10" d="M343.106,66.648c31.582-31.969,51.793-47.954,60.635-47.954
		c3.691,0,5.537,1.754,5.537,5.259c0,3.234-1.322,6.832-3.965,10.793c-1.961,2.824-13.887,15.712-35.777,38.664
		c-18.213,20.211-27.318,32.073-27.318,35.584c0,1.232,0.889,1.916,2.666,2.053s2.666,0.404,2.666,0.803
		c0,1.242-1.391,1.863-4.17,1.863c-3.92,0-5.879-1.844-5.879-5.533c0-6.876,8.499-19.787,25.498-38.731
		c5.97-6.648,17.271-18.307,33.906-34.976c5.65-5.646,8.477-9.606,8.477-11.884c0-0.865-0.434-1.298-1.299-1.298
		c-3.145,0-12.009,6.057-26.592,18.171c-11.667,9.701-20.371,17.419-26.113,23.157c-5.512,5.51-12.752,13.297-21.723,23.361
		c-16.167,18.17-24.501,27.255-25.002,27.255c-0.69,0-1.505-0.433-2.447-1.298s-1.413-1.64-1.413-2.323
		c0-1.775,9.684-14.094,29.053-36.954c19.368-22.859,29.053-36.109,29.053-39.75c0-0.91-0.456-1.365-1.367-1.365
		c-2.324,0-8.34,3.644-18.047,10.928c-8.933,6.739-18.754,15.208-29.463,25.406L282.32,95.272l-9.712,10.45
		c-5.426,5.83-8.344,8.744-8.754,8.744c-0.727,0-1.632-0.365-2.72-1.094c-1.224-0.773-1.836-1.503-1.836-2.187
		c0-1.501,5.719-8.652,17.158-21.448l31.992-35.929c11.438-13.478,17.158-21.811,17.158-24.998c0-1.184-0.593-1.776-1.777-1.776
		c-3.281,0-10.117,4.209-20.508,12.628c-7.793,6.325-18.891,17.475-33.291,33.448c-0.912,1.002-1.641,1.502-2.188,1.502
		c-1.003,0-1.504-0.387-1.504-1.161c0-1.182,3.987-6.348,11.963-15.496c5.696-6.462,12.896-13.29,21.602-20.48
		c11.256-9.284,19.391-13.927,24.404-13.927c3.372,0,5.059,1.845,5.059,5.533c0,6.193-8.203,19.307-24.609,39.343
		c28.027-26.636,45.618-39.954,52.773-39.954c3.372,0,5.059,1.73,5.059,5.191C362.589,39.125,356.095,50.121,343.106,66.648z"/>
	<path fill="none" stroke="#FFFFFF" stroke-miterlimit="10" d="M388.087,94.983l-14.082,10.732c-7.2,5.014-12.578,7.52-16.133,7.52
		c-0.547,0-0.82-0.281-0.82-0.844c0-0.891,0.456-1.43,1.367-1.617c2.78-0.5,5.15-1.295,7.109-2.387
		c3.418-1.865,8.978-5.845,16.68-11.94l18.047-14.804c3.463-3.046,5.582-4.57,6.357-4.57c1.149,0,2.414,0.639,3.794,1.914
		c2.635-2.005,4.976-3.008,7.021-3.008c3.089,0,4.635,1.664,4.635,4.99c0,4.968-3.965,11.735-11.895,20.303
		c-8.066,8.659-14.584,12.988-19.551,12.988c-4.648,0-6.973-2.438-6.973-7.314C383.644,104.395,385.124,100.407,388.087,94.983z
		 M404.562,86.575c-9.297,8.137-13.945,14.765-13.945,19.883c0,2.193,1.048,3.291,3.145,3.291c3.418,0,8.75-4.143,15.996-12.428
		c-3.828-0.912-5.742-3.376-5.742-7.392C404.015,88.88,404.196,87.762,404.562,86.575z M411.261,95.125
		c1.686-1.602,3.372-3.776,5.059-6.523c1.868-3.158,2.803-5.675,2.803-7.552c0-1.739-0.752-2.609-2.256-2.609
		c-2.233,0-4.478,1.408-6.733,4.222c-2.256,2.815-3.384,5.367-3.384,7.655C406.749,92.881,408.253,94.483,411.261,95.125z"/>
	<path fill="none" stroke="#FFFFFF" stroke-miterlimit="10" d="M447.628,97.581c16.497-14.674,27.525-22.012,33.086-22.012
		c2.461,0,3.691,1.299,3.691,3.896c0,2.78-3.908,8.066-11.724,15.859c-7.816,7.793-11.724,12.373-11.724,13.74
		c0,1.276,1.253,1.914,3.76,1.914c0.638,0,0.957,0.365,0.957,1.094c0,0.866-1.117,1.299-3.35,1.299c-3.965,0-5.947-1.663-5.947-4.99
		c0-3.828,3.053-8.863,9.16-15.107c7.474-7.656,11.507-12.008,12.1-13.057c0.045-0.547-0.229-0.82-0.82-0.82
		c-2.507,0-8.887,4.353-19.141,13.057c-7.656,6.472-13.809,12.031-18.457,16.68c-1.869,1.869-3.396,3.236-4.58,4.102
		c-0.684,0-1.333-0.433-1.948-1.299c-0.615-0.865-0.923-1.663-0.923-2.393c0-1.048,3.121-5.537,9.365-13.467l10.869-13.672
		c-4.421,4.147-9.936,8.818-16.543,14.014l-13.125,10.049c-6.607,4.512-11.689,6.768-15.244,6.768c-0.547,0-0.82-0.281-0.82-0.844
		c0-0.844,0.456-1.383,1.367-1.617c3.783-0.955,7.109-2.318,9.98-4.093c5.332-3.275,13.33-9.415,23.994-18.421l13.809-11.666
		c2.916-2.461,11.006-11.461,24.268-27.002c11.939-13.99,18.479-20.986,19.619-20.986c1.641,0,2.461,1.025,2.461,3.076
		c0,1.413-4.58,7.52-13.74,18.32L447.628,97.581z"/>
	<path fill="none" stroke="#FFFFFF" stroke-miterlimit="10" d="M489.737,98.855c-12.168,9.587-20.553,14.38-25.156,14.38
		c-0.547,0-0.82-0.305-0.82-0.914c0-0.844,0.547-1.359,1.641-1.547c4.284-0.684,10.209-3.987,17.773-9.912l8.818-6.904l14.15-11.279
		c6.471-4.466,12.008-6.699,16.611-6.699c3.418,0,5.332,1.712,5.742,5.137c1.777-1.692,3.008-2.539,3.691-2.539
		c1.504,0,2.256,0.619,2.256,1.854c0,1.598-3.498,6.483-10.493,14.655c-6.996,8.173-10.493,12.932-10.493,14.276
		c0,0.942,0.752,1.436,2.256,1.48s2.256,0.442,2.256,1.19c0,0.938-1.55,1.406-4.648,1.406c-3.054,0-4.58-1.347-4.58-4.041
		c0-2.146,1.23-5.205,3.691-9.177l-8.477,7.192c-4.147,3.106-7.451,4.658-9.912,4.658c-3.92,0-5.879-1.986-5.879-5.958
		C488.165,103.923,488.688,101.504,489.737,98.855z M523.712,78.782c-2.689,0-8.249,4.021-16.68,12.059
		c-8.432,8.039-12.646,13.406-12.646,16.101c0,1.233,0.592,1.85,1.777,1.85c2.598,0,8.169-3.939,16.714-11.819
		c8.545-7.878,12.817-13.189,12.817-15.93C525.694,79.536,525.033,78.782,523.712,78.782z"/>
	<path fill="none" stroke="#FFFFFF" stroke-miterlimit="10" d="M561.788,82.679l-21.807,18.047
		c-10.982,8.34-18.685,12.51-23.105,12.51c-0.547,0-0.82-0.305-0.82-0.914c0-0.797,0.456-1.313,1.367-1.547
		c3.327-0.818,5.902-1.729,7.725-2.729c2.871-1.501,8.887-5.891,18.047-13.169c4.146-3.229,10.117-8.369,17.91-15.419
		c2.916-3.047,5.013-4.571,6.289-4.571c2.552,0,3.828,0.82,3.828,2.461c0,2.097-2.575,6.449-7.725,13.057
		c9.935-9.114,16.793-13.672,20.576-13.672c1.275,0,2.438,0.399,3.486,1.196c1.048,0.798,1.572,1.812,1.572,3.042
		c0,1.823-1.23,4.489-3.691,7.998c9.205-9.068,16.451-13.604,21.738-13.604c3.053,0,4.58,1.23,4.58,3.691
		c0,3.19-3.737,8.613-11.211,16.27c-7.475,7.656-11.211,12.26-11.211,13.809c0,1.186,0.797,1.789,2.393,1.812
		c1.595,0.023,2.393,0.399,2.393,1.128c0,0.912-1.332,1.367-3.994,1.367c-3.581,0-5.371-1.572-5.371-4.717
		c0-3.555,3.258-9.034,9.775-16.44c6.517-7.405,9.775-11.541,9.775-12.407c0-0.547-0.342-0.82-1.025-0.82
		c-2.734,0-8.705,4.307-17.91,12.92c-7.611,7.109-13.217,12.875-16.816,17.295c-2.188,2.734-3.806,4.102-4.854,4.102
		c-1.777,0-2.666-0.82-2.666-2.461c0-1.686,3.577-6.517,10.732-14.492c7.154-7.975,10.732-12.896,10.732-14.766
		c0-0.82-0.456-1.23-1.367-1.23c-2.37,0-7.771,3.965-16.201,11.895c-7.246,6.836-12.351,12.168-15.313,15.996
		c-2.324,3.008-4.353,4.512-6.084,4.512c-1.55,0-2.324-0.684-2.324-2.051c0-1.731,3.167-6.539,9.502-14.424L561.788,82.679z"/>
	<path fill="none" stroke="#FFFFFF" stroke-miterlimit="10" d="M637.94,82.679l-21.807,18.047
		c-10.982,8.34-18.685,12.51-23.105,12.51c-0.547,0-0.82-0.305-0.82-0.914c0-0.797,0.456-1.313,1.367-1.547
		c3.327-0.818,5.902-1.729,7.725-2.729c2.871-1.501,8.887-5.891,18.047-13.169c4.146-3.229,10.117-8.369,17.91-15.419
		c2.916-3.047,5.013-4.571,6.289-4.571c2.552,0,3.828,0.82,3.828,2.461c0,2.097-2.575,6.449-7.725,13.057
		c9.935-9.114,16.793-13.672,20.576-13.672c1.275,0,2.438,0.399,3.486,1.196c1.048,0.798,1.572,1.812,1.572,3.042
		c0,1.823-1.23,4.489-3.691,7.998c9.205-9.068,16.451-13.604,21.739-13.604c3.053,0,4.58,1.23,4.58,3.691
		c0,3.19-3.738,8.613-11.211,16.27c-7.475,7.656-11.211,12.26-11.211,13.809c0,1.186,0.797,1.789,2.393,1.812
		c1.595,0.023,2.393,0.399,2.393,1.128c0,0.912-1.332,1.367-3.994,1.367c-3.581,0-5.371-1.572-5.371-4.717
		c0-3.555,3.258-9.034,9.775-16.44c6.517-7.405,9.775-11.541,9.775-12.407c0-0.547-0.342-0.82-1.025-0.82
		c-2.734,0-8.705,4.307-17.91,12.92c-7.611,7.109-13.217,12.875-16.816,17.295c-2.188,2.734-3.806,4.102-4.854,4.102
		c-1.777,0-2.666-0.82-2.666-2.461c0-1.686,3.577-6.517,10.732-14.492c7.154-7.975,10.732-12.896,10.732-14.766
		c0-0.82-0.456-1.23-1.367-1.23c-2.37,0-7.771,3.965-16.201,11.895c-7.246,6.836-12.351,12.168-15.313,15.996
		c-2.324,3.008-4.353,4.512-6.084,4.512c-1.55,0-2.324-0.684-2.324-2.051c0-1.731,3.167-6.539,9.502-14.424L637.94,82.679z"/>
	<path fill="none" stroke="#FFFFFF" stroke-miterlimit="10" d="M694.337,98.855c-12.168,9.587-20.553,14.38-25.157,14.38
		c-0.547,0-0.82-0.305-0.82-0.914c0-0.844,0.547-1.359,1.641-1.547c4.284-0.684,10.209-3.987,17.774-9.912l8.818-6.904l14.15-11.279
		c6.471-4.466,12.008-6.699,16.611-6.699c3.418,0,5.332,1.712,5.742,5.137c1.777-1.692,3.008-2.539,3.691-2.539
		c1.504,0,2.256,0.619,2.256,1.854c0,1.598-3.498,6.483-10.494,14.655c-6.996,8.173-10.492,12.932-10.492,14.276
		c0,0.942,0.752,1.436,2.256,1.48s2.256,0.442,2.256,1.19c0,0.938-1.551,1.406-4.648,1.406c-3.055,0-4.58-1.347-4.58-4.041
		c0-2.146,1.23-5.205,3.691-9.177l-8.477,7.192c-4.148,3.106-7.451,4.658-9.912,4.658c-3.92,0-5.879-1.986-5.879-5.958
		C692.765,103.923,693.289,101.504,694.337,98.855z M728.312,78.782c-2.689,0-8.25,4.021-16.68,12.059
		c-8.432,8.039-12.646,13.406-12.646,16.101c0,1.233,0.592,1.85,1.777,1.85c2.598,0,8.168-3.939,16.713-11.819
		c8.545-7.878,12.818-13.189,12.818-15.93C730.294,79.536,729.632,78.782,728.312,78.782z"/>
	<path fill="none" stroke="#FFFFFF" stroke-miterlimit="10" d="M749.23,96.829l-12.92,9.912c-6.381,4.33-11.324,6.494-14.834,6.494
		c-0.547,0-0.82-0.281-0.82-0.844c0-0.844,0.455-1.383,1.367-1.617c3.51-0.864,6.699-2.16,9.57-3.889
		c4.33-2.547,10.4-7.231,18.217-14.055c7.816-6.822,13.844-11.484,18.082-13.986c3.008-1.773,5.719-2.661,8.135-2.661
		c4.055,0,6.174,1.687,6.357,5.059c6.836-8.613,14.582-17.818,23.242-27.617c13.307-15.13,21.26-22.695,23.857-22.695
		c1.457,0,2.188,0.82,2.188,2.461c0,1.367-1.846,3.988-5.537,7.861c-6.883,7.155-17.137,18.73-30.762,34.727
		c-16.727,19.604-25.088,30.68-25.088,33.227c0,1.046,0.762,1.592,2.289,1.637c1.527,0.046,2.291,0.443,2.291,1.191
		c0,0.938-1.104,1.406-3.307,1.406c-3.631,0-5.443-1.48-5.443-4.443c0-2.369,1.504-6.061,4.512-11.074
		c-8.979,9.57-15.359,14.355-19.141,14.355c-3.51,0-5.264-1.868-5.264-5.605C746.222,104.577,747.224,101.296,749.23,96.829z
		 M753.4,108.792c2.598,0,7.746-3.893,15.449-11.682c7.701-7.789,11.553-12.985,11.553-15.589c0-1.325-0.615-1.987-1.846-1.987
		c-3.191,0-8.408,3.792-15.654,11.375c-7.246,7.583-10.869,13.065-10.869,16.444C752.033,108.313,752.488,108.792,753.4,108.792z"/>
	<path fill="none" stroke="#FFFFFF" stroke-miterlimit="10" d="M927.486,73.86h6.264c3.041,0.319,4.563,1.254,4.563,2.803
		c0,1.003-1.113,1.504-3.34,1.504l-4.428-0.273l-6.406,0.065l-13.932,17.672c-9.424,11.736-14.635,17.604-15.637,17.604
		c-0.887,0-1.701-0.651-2.447-1.957c-0.697-1.125-1.047-2.16-1.047-3.105c0-1.411,7.758-11.484,23.277-30.214h-5.338
		c-7.436,0.044-18.496,0.458-33.184,1.24l-23.105,19.724l-8.955,8.012c-4.832,4.201-7.771,6.301-8.818,6.301
		c-1.277,0-1.914-0.661-1.914-1.983c0-1.644,6.584-7.946,19.756-18.907l15.654-13.016c-20.918,1.003-31.719,2.051-32.402,3.145
		v0.068c0,0.866,3.258,1.299,9.775,1.299l9.16-0.137c1.23-0.045,1.846,0.229,1.846,0.82c0,1.276-4.969,1.914-14.902,1.914
		c-8.477,0-12.715-1.07-12.715-3.213c0-2.734,2.506-4.603,7.52-5.605c1.412-0.318,4.922-0.66,10.527-1.025l26.66-1.777
		c10.754-8.896,26.135-20.439,46.143-34.628c25.475-18.021,40.674-27.032,45.596-27.032c2.461,0,3.691,1.597,3.691,4.789
		c0,2.691-3.211,8.027-9.629,16.006L927.486,73.86z M917.707,73.86l32.031-38.946l5.941-7.255c2.549-3.239,4.234-5.725,5.055-7.46
		l0.104-0.273c0-0.502-0.229-0.753-0.684-0.753c-2.145,0-15.699,9.126-40.66,27.378l-37.578,27.925L917.707,73.86z"/>
	<path fill="none" stroke="#FFFFFF" stroke-miterlimit="10" d="M966.339,78.372c2.369-1.731,4.717-2.598,7.041-2.598
		c2.004,0,3.68,0.729,5.023,2.188c1.344,1.459,2.018,3.213,2.018,5.264c0,5.834-3.26,12.214-9.775,19.141
		c-6.609,7.064-12.807,10.596-18.594,10.596c-5.516,0-8.271-2.848-8.271-8.545c0-3.008,1.299-7.2,3.896-12.578
		c-7.064,6.335-12.031,10.573-14.902,12.715c-7.611,5.788-13.535,8.682-17.773,8.682c-0.547,0-0.82-0.281-0.82-0.844
		c0-0.844,0.592-1.383,1.777-1.617c4.648-0.956,10.938-4.576,18.867-10.859c8.795-6.966,17.18-15.391,25.156-25.272
		c11.939-14.797,22.17-25.771,30.693-32.921c8.887-7.421,14.787-11.133,17.705-11.133c2.871,0,4.307,1.412,4.307,4.235
		c0,3.097-2.895,7.923-8.682,14.479c-4.922,5.555-14.037,12.59-27.344,21.105c-1.869,1.094-4.58,2.801-8.135,5.123
		C967.933,75.947,967.205,76.894,966.339,78.372z M967.023,96.897c-4.238-1.777-6.357-4.557-6.357-8.34
		c0-1.412,0.479-3.167,1.436-5.264c-9.297,11.804-13.945,19.711-13.945,23.721c0,1.869,0.889,2.803,2.666,2.803
		C955.06,109.817,960.46,105.511,967.023,96.897z M968.595,94.778c4.328-5.195,6.494-9.434,6.494-12.715
		c0-2.324-0.965-3.486-2.889-3.486c-2.246,0-4.309,1.083-6.188,3.247c-1.881,2.165-2.818,4.387-2.818,6.665
		C963.195,91.589,964.994,93.685,968.595,94.778z M1009.953,35.374c0-0.547-0.229-0.82-0.684-0.82
		c-2.098,0-8.318,5.332-18.662,15.996c-8.387,8.613-14.402,15.199-18.047,19.756c18.047-11.074,29.621-20.804,34.727-29.189
		C1009.064,38.245,1009.953,36.331,1009.953,35.374z"/>
	<path fill="none" stroke="#FFFFFF" stroke-miterlimit="10" d="M1019.181,100.384c-7.93,7.748-13.764,11.621-17.5,11.621
		c-2.826,0-4.238-1.572-4.238-4.717c0-3.691,1.641-7.838,4.922-12.441l8.818-10.391l-19.551,16.201
		c-11.029,8.386-18.775,12.578-23.242,12.578c-0.547,0-0.82-0.296-0.82-0.889c0-0.774,0.66-1.299,1.982-1.572
		c1.686-0.318,3.668-1.002,5.947-2.051c2.643-1.23,8.227-5.195,16.748-11.895c3.918-3.053,9.684-7.838,17.295-14.355
		c1.275-1.321,3.326-3.121,6.152-5.4c1.139-0.729,2.188-1.094,3.145-1.094c2.643,0,3.965,0.866,3.965,2.598
		c0,1.777-3.191,6.198-9.57,13.262c-6.381,7.064-9.57,12.1-9.57,15.107c0,0.775,0.41,1.162,1.23,1.162
		c2.734,0,8.818-5.218,18.252-15.654c9.434-10.436,14.787-15.654,16.064-15.654c0.637,0,1.264,0.331,1.879,0.991
		c0.615,0.661,0.924,1.333,0.924,2.017c0,1.094-3.521,5.708-10.563,13.843s-10.561,13.342-10.561,15.62
		c0,1.049,0.773,1.596,2.324,1.641c1.549,0.046,2.324,0.434,2.324,1.162c0,0.866-1.148,1.299-3.443,1.299
		c-3.857,0-5.785-1.458-5.785-4.375C1016.31,106.901,1017.267,104.03,1019.181,100.384z"/>
	<path fill="none" stroke="#FFFFFF" stroke-miterlimit="10" d="M1131.632,72.356l2.666,18.389c1.594,10.254,2.848,16.088,3.76,17.5
		c0.592,1.049,1.822,1.823,3.691,2.324c1.594,0.355,2.393,0.711,2.393,1.066c0,0.474-1.049,0.869-3.145,1.186
		c-1.688,0.276-3.031,0.414-4.031,0.414c-3.004,0-5.188-1.412-6.553-4.238c-1.049-2.368-3.42-15.099-7.115-38.194
		c-13.801,14.804-25.301,27.581-34.502,38.331c-2.332,2.734-3.979,4.102-4.938,4.102c-1.6,0-2.855-1.025-3.77-3.076
		c0.09-2.371,12.273-16.853,36.551-43.443c24.275-26.591,36.414-39.909,36.414-39.955l-0.137-0.205
		c-1.51,0.046-6.586,3.11-15.227,9.194l-12.689,9.126c-0.73,0-1.094-0.433-1.094-1.299c0-1.185,5.494-5.423,16.482-12.715
		c11.17-7.383,17.918-11.074,20.244-11.074c0.865,0,1.902,0.513,3.111,1.538s1.813,1.948,1.813,2.769
		c0,0.502-1.754,2.621-5.264,6.357l-6.287,6.563l-26.25,29.053l1.018-0.068c1.178-0.091,1.855,0.707,2.037,2.393l65.42-34.248
		c14.309-7.428,22.375-11.143,24.199-11.143c0.773,0,1.162,0.707,1.162,2.119c0,2.233-1.869,4.216-5.605,5.947l-11.963,5.469
		L1131.632,72.356z"/>
	<path fill="none" stroke="#FFFFFF" stroke-miterlimit="10" d="M1203.453,111.048l4.316-0.137c0.602,0,0.904,0.374,0.904,1.121
		c0,0.844-1.063,1.357-3.186,1.545l-4.293,0.205l-19.061,23.584c-11.434,13.033-19.539,19.551-24.322,19.551
		c-2.277,0-3.416-1.529-3.416-4.587c0-6.8,4.475-14.661,13.422-23.585c8.947-8.923,18.156-14.457,27.629-16.602l14.162-18.186
		l-11.203,9.98c-6.832,5.651-11.477,8.477-13.936,8.477c-2.869,0-4.303-2.027-4.303-6.084c0-3.509,1.662-7.633,4.99-12.373
		l8.34-10.527c-5.379,4.785-11.553,9.958-18.525,15.518c-5.697,4.512-9.547,7.429-11.553,8.75c-5.514,3.691-9.98,5.537-13.398,5.537
		c-0.547,0-0.82-0.305-0.82-0.914c0-0.797,0.455-1.313,1.367-1.547c5.742-1.41,13.672-6.254,23.789-14.534l11.963-9.826l7.725-6.823
		c4.328-3.73,6.768-5.595,7.314-5.595c1.184,0,2.313,0.399,3.383,1.198c1.07,0.799,1.607,1.77,1.607,2.912l-10.801,12.533
		c-7.201,8.54-10.801,14.226-10.801,17.056c0,0.822,0.455,1.232,1.367,1.232c2.734,0,9.41-5.067,20.029-15.204
		c7.793-7.442,14.264-14.085,19.414-19.93c1.047-1.187,1.799-1.781,2.256-1.781c0.865,0,1.766,0.308,2.699,0.922
		s1.402,1.331,1.402,2.149c0,0.455-0.297,1.001-0.891,1.637C1222.632,85.822,1213.441,97.264,1203.453,111.048z M1193.052,115.149
		c-9.17,2.962-17.484,8.374-24.941,16.235s-11.186,14.321-11.186,19.38c0,1.549,0.547,2.324,1.641,2.324
		C1162.945,153.089,1174.441,140.442,1193.052,115.149z"/>
	<path fill="none" stroke="#FFFFFF" stroke-miterlimit="10" d="M1258.371,100.384c-7.93,7.748-13.764,11.621-17.5,11.621
		c-2.826,0-4.238-1.572-4.238-4.717c0-3.691,1.641-7.838,4.922-12.441l8.818-10.391l-19.551,16.201
		c-11.029,8.386-18.775,12.578-23.242,12.578c-0.547,0-0.82-0.296-0.82-0.889c0-0.774,0.66-1.299,1.982-1.572
		c1.686-0.318,3.668-1.002,5.947-2.051c2.643-1.23,8.227-5.195,16.748-11.895c3.918-3.053,9.684-7.838,17.295-14.355
		c1.275-1.321,3.326-3.121,6.152-5.4c1.139-0.729,2.188-1.094,3.145-1.094c2.643,0,3.965,0.866,3.965,2.598
		c0,1.777-3.191,6.198-9.57,13.262c-6.381,7.064-9.57,12.1-9.57,15.107c0,0.775,0.41,1.162,1.23,1.162
		c2.734,0,8.818-5.218,18.252-15.654c9.434-10.436,14.787-15.654,16.064-15.654c0.637,0,1.264,0.331,1.879,0.991
		c0.615,0.661,0.924,1.333,0.924,2.017c0,1.094-3.521,5.708-10.563,13.843s-10.561,13.342-10.561,15.62
		c0,1.049,0.773,1.596,2.324,1.641c1.549,0.046,2.324,0.434,2.324,1.162c0,0.866-1.148,1.299-3.443,1.299
		c-3.857,0-5.785-1.458-5.785-4.375C1255.5,106.901,1256.457,104.03,1258.371,100.384z"/>
	<path fill="none" stroke="#FFFFFF" stroke-miterlimit="10" d="M1308.546,82.679l-21.807,18.047
		c-10.982,8.34-18.686,12.51-23.105,12.51c-0.547,0-0.82-0.305-0.82-0.914c0-0.797,0.455-1.313,1.367-1.547
		c3.326-0.818,5.902-1.729,7.725-2.729c2.871-1.501,8.887-5.891,18.047-13.169c4.146-3.229,10.117-8.369,17.91-15.419
		c2.916-3.047,5.012-4.571,6.289-4.571c2.551,0,3.828,0.82,3.828,2.461c0,2.097-2.576,6.449-7.725,13.057
		c9.934-9.114,16.793-13.672,20.576-13.672c1.275,0,2.438,0.399,3.486,1.196c1.047,0.798,1.572,1.812,1.572,3.042
		c0,1.823-1.23,4.489-3.691,7.998c9.205-9.068,16.451-13.604,21.738-13.604c3.053,0,4.58,1.23,4.58,3.691
		c0,3.19-3.738,8.613-11.211,16.27c-7.475,7.656-11.211,12.26-11.211,13.809c0,1.186,0.797,1.789,2.393,1.812
		c1.594,0.023,2.393,0.399,2.393,1.128c0,0.912-1.332,1.367-3.994,1.367c-3.582,0-5.371-1.572-5.371-4.717
		c0-3.555,3.258-9.034,9.775-16.44c6.516-7.405,9.775-11.541,9.775-12.407c0-0.547-0.342-0.82-1.025-0.82
		c-2.734,0-8.705,4.307-17.91,12.92c-7.611,7.109-13.217,12.875-16.816,17.295c-2.188,2.734-3.807,4.102-4.854,4.102
		c-1.777,0-2.666-0.82-2.666-2.461c0-1.686,3.576-6.517,10.732-14.492c7.154-7.975,10.732-12.896,10.732-14.766
		c0-0.82-0.457-1.23-1.367-1.23c-2.371,0-7.771,3.965-16.201,11.895c-7.246,6.836-12.352,12.168-15.313,15.996
		c-2.324,3.008-4.354,4.512-6.084,4.512c-1.551,0-2.324-0.684-2.324-2.051c0-1.731,3.166-6.539,9.502-14.424L1308.546,82.679z"/>
</g>
</svg>
